HIERARCHY
ROOT SpineBase
{
  OFFSET 0.000000 0.000000 0.000000
  CHANNELS 6 Xposition Yposition Zposition Zrotation Xrotation Yrotation
  JOINT SpineMid
  {
    OFFSET 0.000000 14.579370 0.000000
    CHANNELS 3 Zrotation Xrotation Yrotation
    JOINT SpineShoulder
    {
      OFFSET -0.733243 11.176122 -0.108187
      CHANNELS 3 Zrotation Xrotation Yrotation
      JOINT Neck
      {
        OFFSET -0.378670 3.614361 -0.088618
        CHANNELS 3 Zrotation Xrotation Yrotation
        JOINT Head
        {
          OFFSET 2.838771 9.683724 1.906670
          CHANNELS 3 Zrotation Xrotation Yrotation
          End Site
          {
            OFFSET 0 0 0
          }
        }
      }
      JOINT ShoulderLeft
      {
        OFFSET -6.661918 2.905799 7.356737
        CHANNELS 3 Zrotation Xrotation Yrotation
        JOINT ElbowLeft
        {
          OFFSET -0.183818 -16.439371 3.127263
          CHANNELS 3 Zrotation Xrotation Yrotation
          JOINT WristLeft
          {
            OFFSET 1.168944 -13.575270 -6.316401
            CHANNELS 3 Zrotation Xrotation Yrotation
            JOINT HandLeft
            {
              OFFSET -0.108461 -2.833624 -2.444963
              CHANNELS 3 Zrotation Xrotation Yrotation
              JOINT HandTipLeft
              {
                OFFSET 0.109223 -3.460671 -2.832669
                CHANNELS 3 Zrotation Xrotation Yrotation
                End Site
                {
                  OFFSET 0 0 0
                }
              }
              JOINT ThumbLeft
              {
                OFFSET -1.308878 2.375891 -2.939483
                CHANNELS 3 Zrotation Xrotation Yrotation
                End Site
                {
                  OFFSET 0 0 0
                }
              }
            }
          }
        }
      }
      JOINT ShoulderRight
      {
        OFFSET 6.888599 -2.180953 -5.875071
        CHANNELS 3 Zrotation Xrotation Yrotation
        JOINT ElbowRight
        {
          OFFSET -3.000598 12.851543 -15.269142
          CHANNELS 3 Zrotation Xrotation Yrotation
          JOINT WristRight
          {
            OFFSET 1.354263 -2.873417 -12.606373
            CHANNELS 3 Zrotation Xrotation Yrotation
            JOINT HandRight
            {
              OFFSET -1.723775 2.107807 -4.567604
              CHANNELS 3 Zrotation Xrotation Yrotation
              JOINT HandTipRight
              {
                OFFSET -0.330497 0.480539 -2.823978
                CHANNELS 3 Zrotation Xrotation Yrotation
                End Site
                {
                  OFFSET 0 0 0
                }
              }
              JOINT ThumbRight
              {
                OFFSET 1.593029 2.132597 -1.600248
                CHANNELS 3 Zrotation Xrotation Yrotation
                End Site
                {
                  OFFSET 0 0 0
                }
              }
            }
          }
        }
      }
    }
  }
  JOINT HipLeft
  {
    OFFSET -3.910332 0.455867 2.169816
    CHANNELS 3 Zrotation Xrotation Yrotation
    JOINT KneeLeft
    {
      OFFSET 13.358702 -11.396604 -18.740933
      CHANNELS 3 Zrotation Xrotation Yrotation
      JOINT AnkleLeft
      {
        OFFSET -1.833525 -28.999009 -4.894996
        CHANNELS 3 Zrotation Xrotation Yrotation
        JOINT FootLeft
        {
          OFFSET -3.641764 -3.800459 6.344137
          CHANNELS 3 Zrotation Xrotation Yrotation
          End Site
          {
            OFFSET 0 0 0
          }
        }
      }
    }
  }
  JOINT HipRight
  {
    OFFSET 1.816755 1.585522 -5.658430
    CHANNELS 3 Zrotation Xrotation Yrotation
    JOINT KneeRight
    {
      OFFSET -1.525327 40.402287 -0.538819
      CHANNELS 3 Zrotation Xrotation Yrotation
      JOINT AnkleRight
      {
        OFFSET 1.797302 -30.109819 -4.628587
        CHANNELS 3 Zrotation Xrotation Yrotation
        JOINT FootRight
        {
          OFFSET -6.832000 -1.721010 -8.828221
          CHANNELS 3 Zrotation Xrotation Yrotation
          End Site
          {
            OFFSET 0 0 0
          }
        }
      }
    }
  }
}
MOTION
Frames: 9
Frame Time: 0.033333
169.716417 53.318309 290.751325 -0.000000 0.000000 53.811073 -0.000000 0.000000 -53.811073 -0.000000 0.000000 0.000000 -0.000000 0.000000 0.000000 0.000000 0.000000 0.000000 -0.000000 0.000000 0.000000 -0.000000 0.000000 0.000000 -0.000000 0.000000 0.000000 -0.000000 0.000000 0.000000 0.000000 0.000000 0.000000 0.000000 0.000000 0.000000 -0.000000 0.000000 0.000000 -0.000000 0.000000 0.000000 -0.000000 0.000000 0.000000 -0.000000 0.000000 0.000000 0.000000 0.000000 0.000000 0.000000 0.000000 0.000000 -0.000000 0.000000 -53.811073 -0.000000 0.000000 0.000000 -0.000000 0.000000 0.000000 0.000000 0.000000 0.000000 -0.000000 0.000000 -53.811073 -0.000000 0.000000 0.000000 -0.000000 0.000000 0.000000 0.000000 0.000000 0.000000
169.873995 53.188361 290.899409 0.384029 0.255310 52.627601 -0.435998 0.150221 -52.627885 -0.000000 0.000000 0.000000 2.482203 2.423302 -1.254503 0.000000 0.000000 0.000000 -1.522057 4.402965 -0.282322 0.092443 -8.312936 0.591938 8.555230 2.373509 -6.914873 -9.155464 4.634154 7.607567 0.000000 0.000000 0.000000 0.000000 0.000000 0.000000 -0.341907 4.823070 0.774202 -0.335284 -2.142548 2.945159 0.366274 -7.480517 -6.894708 -0.391686 5.351909 4.266781 0.000000 0.000000 0.000000 0.000000 0.000000 0.000000 -13.151776 -0.243690 -52.569593 10.534815 15.709171 -2.252622 -7.705552 -15.940875 1.311513 0.000000 0.000000 0.000000 -1.519325 -0.217985 -52.674335 0.638270 3.337747 0.123644 -0.279166 -2.252403 -0.097349 0.000000 0.000000 0.000000
170.064390 53.083928 291.012553 0.829591 0.498646 51.529217 0.493031 0.476784 -51.455248 -0.764751 -1.180131 -0.092739 4.560345 4.721723 -2.479875 0.000000 0.000000 0.000000 -2.866094 8.333060 -0.435754 0.814681 -15.393565 0.837063 16.501346 3.398194 -14.447573 -20.025848 9.455705 15.770420 0.000000 0.000000 0.000000 0.000000 0.000000 0.000000 -0.782319 9.275009 1.445822 -0.557716 -5.086269 4.814622 -0.009903 -13.090584 -12.144190 -0.886157 9.167544 7.710230 0.000000 0.000000 0.000000 0.000000 0.000000 0.000000 -24.977692 -0.893467 -51.586760 21.121766 28.827264 -6.751477 -15.266573 -28.929512 -0.474860 0.000000 0.000000 0.000000 -4.040851 -0.831473 -51.677564 1.426280 7.395270 0.256688 -0.418904 -4.208714 -0.203528 0.000000 0.000000 0.000000
170.287601 53.005011 291.090757 1.330252 0.724150 50.527437 0.507877 0.720810 -50.436520 -1.099723 -1.572215 -0.128956 6.249218 6.930473 -3.658272 0.000000 0.000000 0.000000 -4.004992 11.670594 -0.493047 2.101197 -21.174876 0.938681 22.831344 3.822791 -21.294082 -31.097589 15.346128 22.740774 0.000000 0.000000 0.000000 0.000000 0.000000 0.000000 -1.270782 12.895083 1.919839 -0.662477 -8.010432 6.140686 -0.660812 -17.264420 -16.242089 -1.309233 11.796760 10.541380 0.000000 0.000000 0.000000 0.000000 0.000000 0.000000 -35.011510 -1.743905 -50.909883 31.850855 38.727276 -12.954174 -24.255776 -39.165499 -5.780001 0.000000 0.000000 0.000000 -9.100972 -2.534888 -50.993854 2.835268 13.765827 0.379955 -0.410062 -5.838550 -0.309178 0.000000 0.000000 0.000000
170.543629 52.951610 291.134019 1.876832 0.926407 49.632696 0.348359 0.947854 -49.537404 -1.384178 -1.802491 -0.153541 7.560464 9.087100 -4.776948 0.000000 0.000000 0.000000 -4.918819 14.345005 -0.489635 3.958059 -25.632118 1.027938 26.706003 4.843726 -26.259079 -37.762409 23.850596 24.988939 0.000000 0.000000 0.000000 0.000000 0.000000 0.000000 -1.734636 15.238475 2.089215 -0.651214 -10.292567 7.268522 -1.332723 -20.298092 -19.427342 -1.546173 13.400470 12.874031 0.000000 0.000000 0.000000 0.000000 0.000000 0.000000 -43.299734 -2.631905 -50.507788 42.290359 45.482889 -19.998709 -36.970323 -46.548838 -16.473140 0.000000 0.000000 0.000000 -24.382345 -8.508072 -52.147162 7.495466 30.340449 -0.238493 -0.153688 -7.565437 0.929474 0.000000 0.000000 0.000000
170.832473 52.923725 291.142342 2.457925 1.100860 48.854088 0.013125 1.146386 -48.764643 -0.909134 -2.280327 -0.165256 7.807672 11.646975 -5.859241 0.000000 0.000000 0.000000 -6.314962 16.740364 -0.385218 6.433799 -28.757843 1.169661 27.548635 7.620782 -28.448305 -28.328439 31.281747 14.957131 0.000000 0.000000 0.000000 0.000000 0.000000 0.000000 -2.815903 16.368254 1.907559 -0.526483 -11.508633 8.410171 -1.865961 -22.378934 -21.814636 -1.498248 14.016369 14.783899 0.000000 0.000000 0.000000 0.000000 0.000000 0.000000 -50.124217 -3.459080 -50.329387 51.548142 49.576889 -26.703994 -56.849950 -49.114775 -36.197761 0.000000 0.000000 0.000000 -105.479538 -21.727630 -80.414445 153.505211 67.495402 -131.198646 0.407943 -9.018155 1.914646 0.000000 0.000000 0.000000
171.184167 52.982850 291.133511 2.928402 0.961408 47.011738 -0.724489 1.245656 -46.949680 -1.103593 -2.364541 -0.205627 9.264996 15.694999 -7.521480 0.000000 0.000000 0.000000 -7.217469 18.152076 -0.229059 13.289006 -27.266737 1.473312 13.187651 16.614624 -16.220600 9.189127 16.702288 -9.477050 0.000000 0.000000 0.000000 0.000000 0.000000 0.000000 -1.908002 11.153773 0.981872 -0.900736 -6.990649 9.252580 -2.778206 -18.968280 -23.620761 -1.961260 15.258229 12.410494 0.000000 0.000000 0.000000 0.000000 0.000000 0.000000 -56.049399 -5.153256 -50.296407 57.783417 52.302346 -30.885636 -90.992159 -27.642630 -77.536682 0.000000 0.000000 0.000000 -157.299198 -8.376170 -96.752432 -177.026222 18.980079 -146.942491 2.118547 -11.452352 3.430255 0.000000 0.000000 0.000000
171.606716 53.016016 291.059484 3.507575 0.966339 45.661257 -1.199241 1.355588 -45.608972 -1.190364 -2.201018 -0.194316 9.279400 18.181526 -8.459607 0.000000 0.000000 0.000000 -8.678854 16.765512 -0.334817 19.049175 -22.963627 1.167552 13.534965 23.642677 -19.648089 6.172871 -5.794957 0.269140 0.000000 0.000000 0.000000 0.000000 0.000000 0.000000 -1.642684 8.106966 0.541639 -1.122243 -3.574776 9.561514 -3.437708 -23.682477 -25.205045 2.545758 8.506225 19.675956 0.000000 0.000000 0.000000 0.000000 0.000000 0.000000 -61.283949 -6.512627 -50.121659 61.270315 51.408355 -32.880202 -78.211762 13.073711 -92.424788 0.000000 0.000000 0.000000 -164.849724 -6.573239 -102.373110 -173.829643 11.135543 -150.163768 3.394147 -13.341481 5.382058 0.000000 0.000000 0.000000
171.977340 53.170832 290.969250 3.898130 0.674672 46.308621 -1.964413 1.423446 -46.276148 -1.235852 -2.048057 -0.210668 9.882817 22.294393 -9.921190 0.000000 0.000000 0.000000 -8.193993 18.473260 -0.087088 20.722611 -24.439216 1.213142 0.152758 22.553782 -7.032811 20.132092 -21.613640 -5.165745 0.000000 0.000000 0.000000 0.000000 0.000000 0.000000 -3.196231 11.728667 -0.647209 0.598253 -9.896447 11.776144 -2.198212 -29.326960 -25.579384 4.347288 8.945303 25.938662 0.000000 0.000000 0.000000 0.000000 0.000000 0.000000 -65.484136 -6.047168 -50.854478 62.929239 49.518399 -33.449496 -32.157572 42.660243 -116.332343 0.000000 0.000000 0.000000 -166.575258 -5.759065 -100.544853 -172.898500 9.725517 -148.716443 4.382260 -14.104909 7.404515 0.000000 0.000000 0.000000
